<svg version="1.1" id="Layer_1" xmlns="http://www.w3.org/2000/svg" xmlns:xlink="http://www.w3.org/1999/xlink" x="0px" y="0px"
	 width="100%" viewBox="0 0 600 600" enable-background="new 0 0 600 600" xml:space="preserve">
<path fill="#010100" opacity="1.000000" stroke="none" 
	d="
M360.000000,601.000000 
	C240.000000,601.000000 120.500000,601.000000 1.000000,601.000000 
	C1.000000,401.000000 1.000000,201.000000 1.000000,1.000000 
	C201.000000,1.000000 401.000000,1.000000 601.000000,1.000000 
	C601.000000,201.000000 601.000000,401.000000 601.000000,601.000000 
	C520.833313,601.000000 440.666656,601.000000 360.000000,601.000000 
M372.159546,63.341705 
	C327.980682,20.994970 276.066467,6.906412 217.202728,23.483545 
	C172.596863,36.045395 140.724274,64.813103 119.972816,107.146179 
	C134.650528,107.184128 148.086960,108.477890 161.318985,112.311470 
	C173.908600,115.958916 185.564651,121.288322 196.197235,128.813187 
	C200.859283,132.112595 201.085144,137.173462 197.431061,141.720398 
	C193.663742,146.408264 189.794205,146.513474 183.042297,142.433319 
	C148.876953,121.787376 113.815788,120.498680 78.177101,138.194046 
	C61.064186,146.690964 47.391258,159.561249 37.672127,175.799408 
	C24.532949,197.751587 19.700293,221.784225 23.756510,247.330917 
	C29.300646,282.248779 47.095238,309.228729 77.163750,327.566650 
	C86.832497,333.463318 97.542633,338.489014 108.450119,341.281067 
	C119.208687,344.035065 130.818985,344.210327 142.057449,344.226318 
	C269.548523,344.407928 397.039978,344.342102 524.531311,344.337433 
	C526.696960,344.337341 528.865845,344.338440 531.027832,344.231476 
	C554.116577,343.089172 570.479797,331.737549 579.418274,310.676086 
	C588.262878,289.835785 582.959961,268.080658 566.100342,255.035416 
	C546.481140,239.854965 516.481384,243.400879 501.571991,265.840332 
	C497.698517,271.670105 492.261871,272.908661 487.637390,269.798950 
	C482.903442,266.615631 482.404999,260.782440 486.520996,254.839981 
	C494.992920,242.608704 506.206940,233.982239 520.563110,229.815216 
	C525.625549,228.345825 530.892639,227.581558 536.537598,226.396393 
	C534.608765,190.522018 519.681763,161.396439 491.116791,139.568756 
	C472.186340,125.103249 450.694031,117.486862 427.378235,116.921806 
	C429.746979,128.725952 432.156952,139.759537 434.097137,150.875122 
	C434.894135,155.441269 432.572662,159.069031 428.138855,160.644424 
	C424.212555,162.039474 420.262543,161.292053 417.864716,157.740646 
	C416.371826,155.529541 415.626160,152.603943 415.224304,149.898132 
	C410.282043,116.621696 395.987885,88.007378 372.159546,63.341705 
M157.907150,365.998657 
	C155.436172,365.582306 154.037338,366.545715 152.989487,368.925659 
	C150.086502,375.519196 146.900085,381.988190 143.812683,388.500214 
	C137.970520,400.822601 132.111313,413.136902 126.273903,425.461548 
	C119.797699,439.134766 113.326668,452.810516 106.874809,466.495270 
	C102.234161,476.338318 106.181709,482.877655 116.983276,482.976013 
	C130.082657,483.095306 143.183929,483.004333 156.284393,483.004333 
	C156.488693,483.586365 156.692993,484.168396 156.897293,484.750427 
	C151.699844,492.987823 146.278519,501.094147 141.359177,509.494415 
	C134.556625,521.110535 128.204376,532.989441 121.523552,544.678223 
	C115.942108,554.443420 110.140671,564.082703 104.486481,573.806702 
	C101.872444,578.302307 102.210754,584.201965 105.101547,586.718750 
	C110.988113,591.843933 116.223946,591.703857 121.644264,585.981750 
	C129.453705,577.737366 137.122467,569.359680 144.848404,561.036255 
	C166.980286,537.192749 189.109955,513.347168 211.242157,489.503998 
	C224.044815,475.711639 236.787262,461.862457 249.696732,448.170776 
	C253.226105,444.427490 254.874680,440.471802 252.653122,435.658752 
	C250.510254,431.016205 246.555084,429.710724 241.581329,429.875732 
	C225.602585,430.405884 209.615341,430.683685 193.630737,431.029083 
	C192.420670,431.055206 191.205536,430.847290 189.366791,430.696991 
	C204.541977,408.992218 219.317444,387.859161 234.601517,365.998657 
	C208.451294,365.998657 183.636826,365.998657 157.907150,365.998657 
M491.240265,437.345825 
	C489.541260,432.054779 486.144806,429.562805 480.369446,429.874878 
	C471.721863,430.342102 463.051117,430.444305 454.388367,430.548370 
	C445.643585,430.653412 436.896545,430.571472 427.450439,430.571472 
	C442.506042,409.048462 457.325897,387.862427 472.619507,365.999176 
	C446.008606,365.999176 420.519257,365.956848 395.031219,366.120178 
	C393.713715,366.128632 391.845215,367.607635 391.190582,368.890503 
	C387.855469,375.426300 384.846313,382.128052 381.703094,388.762268 
	C375.934204,400.938446 370.138916,413.102112 364.377380,425.281708 
	C357.406738,440.017181 350.452118,454.760284 343.520782,469.514252 
	C343.096802,470.416718 342.665161,471.453583 342.699921,472.411133 
	C342.927002,478.669434 346.805634,482.980530 353.616486,483.052917 
	C367.192993,483.197205 380.765869,483.680206 394.933746,484.038330 
	C391.047638,490.756195 387.613434,496.910248 383.972992,502.939758 
	C376.824738,514.779114 369.413513,526.461670 362.387848,538.372314 
	C355.388794,550.237854 348.418335,562.144287 342.137390,574.392761 
	C340.553558,577.481445 340.437256,582.472290 341.816803,585.645447 
	C343.618256,589.789001 348.541168,591.187683 353.006927,589.956909 
	C355.691284,589.217102 358.354401,587.270630 360.309540,585.191589 
	C376.999176,567.444153 393.526367,549.543945 410.098236,531.685730 
	C435.778534,504.012177 461.442047,476.322998 487.153870,448.678711 
	C489.975677,445.644806 492.340851,442.567657 491.240265,437.345825 
z"/>
<path fill="#B3B3B3" opacity="1.000000" stroke="none" 
	d="
M372.408813,63.593086 
	C395.987885,88.007378 410.282043,116.621696 415.224304,149.898132 
	C415.626160,152.603943 416.371826,155.529541 417.864716,157.740646 
	C420.262543,161.292053 424.212555,162.039474 428.138855,160.644424 
	C432.572662,159.069031 434.894135,155.441269 434.097137,150.875122 
	C432.156952,139.759537 429.746979,128.725952 427.378235,116.921806 
	C450.694031,117.486862 472.186340,125.103249 491.116791,139.568756 
	C519.681763,161.396439 534.608765,190.522018 536.537598,226.396393 
	C530.892639,227.581558 525.625549,228.345825 520.563110,229.815216 
	C506.206940,233.982239 494.992920,242.608704 486.520996,254.839981 
	C482.404999,260.782440 482.903442,266.615631 487.637390,269.798950 
	C492.261871,272.908661 497.698517,271.670105 501.571991,265.840332 
	C516.481384,243.400879 546.481140,239.854965 566.100342,255.035416 
	C582.959961,268.080658 588.262878,289.835785 579.418274,310.676086 
	C570.479797,331.737549 554.116577,343.089172 531.027832,344.231476 
	C528.865845,344.338440 526.696960,344.337341 524.531311,344.337433 
	C397.039978,344.342102 269.548523,344.407928 142.057449,344.226318 
	C130.818985,344.210327 119.208687,344.035065 108.450119,341.281067 
	C97.542633,338.489014 86.832497,333.463318 77.163750,327.566650 
	C47.095238,309.228729 29.300646,282.248779 23.756510,247.330917 
	C19.700293,221.784225 24.532949,197.751587 37.672127,175.799408 
	C47.391258,159.561249 61.064186,146.690964 78.177101,138.194046 
	C113.815788,120.498680 148.876953,121.787376 183.042297,142.433319 
	C189.794205,146.513474 193.663742,146.408264 197.431061,141.720398 
	C201.085144,137.173462 200.859283,132.112595 196.197235,128.813187 
	C185.564651,121.288322 173.908600,115.958916 161.318985,112.311470 
	C148.086960,108.477890 134.650528,107.184128 119.972816,107.146179 
	C140.724274,64.813103 172.596863,36.045395 217.202728,23.483545 
	C276.066467,6.906412 327.980682,20.994970 372.408813,63.593086 
z"/>
<path fill="#FEDB21" opacity="1.000000" stroke="none" 
	d="
M158.364746,365.998657 
	C183.636826,365.998657 208.451294,365.998657 234.601517,365.998657 
	C219.317444,387.859161 204.541977,408.992218 189.366791,430.696991 
	C191.205536,430.847290 192.420670,431.055206 193.630737,431.029083 
	C209.615341,430.683685 225.602585,430.405884 241.581329,429.875732 
	C246.555084,429.710724 250.510254,431.016205 252.653122,435.658752 
	C254.874680,440.471802 253.226105,444.427490 249.696732,448.170776 
	C236.787262,461.862457 224.044815,475.711639 211.242157,489.503998 
	C189.109955,513.347168 166.980286,537.192749 144.848404,561.036255 
	C137.122467,569.359680 129.453705,577.737366 121.644264,585.981750 
	C116.223946,591.703857 110.988113,591.843933 105.101547,586.718750 
	C102.210754,584.201965 101.872444,578.302307 104.486481,573.806702 
	C110.140671,564.082703 115.942108,554.443420 121.523552,544.678223 
	C128.204376,532.989441 134.556625,521.110535 141.359177,509.494415 
	C146.278519,501.094147 151.699844,492.987823 156.897293,484.750427 
	C156.692993,484.168396 156.488693,483.586365 156.284393,483.004333 
	C143.183929,483.004333 130.082657,483.095306 116.983276,482.976013 
	C106.181709,482.877655 102.234161,476.338318 106.874809,466.495270 
	C113.326668,452.810516 119.797699,439.134766 126.273903,425.461548 
	C132.111313,413.136902 137.970520,400.822601 143.812683,388.500214 
	C146.900085,381.988190 150.086502,375.519196 152.989487,368.925659 
	C154.037338,366.545715 155.436172,365.582306 158.364746,365.998657 
z"/>
<path fill="#FEDB21" opacity="1.000000" stroke="none" 
	d="
M491.327881,437.718811 
	C492.340851,442.567657 489.975677,445.644806 487.153870,448.678711 
	C461.442047,476.322998 435.778534,504.012177 410.098236,531.685730 
	C393.526367,549.543945 376.999176,567.444153 360.309540,585.191589 
	C358.354401,587.270630 355.691284,589.217102 353.006927,589.956909 
	C348.541168,591.187683 343.618256,589.789001 341.816803,585.645447 
	C340.437256,582.472290 340.553558,577.481445 342.137390,574.392761 
	C348.418335,562.144287 355.388794,550.237854 362.387848,538.372314 
	C369.413513,526.461670 376.824738,514.779114 383.972992,502.939758 
	C387.613434,496.910248 391.047638,490.756195 394.933746,484.038330 
	C380.765869,483.680206 367.192993,483.197205 353.616486,483.052917 
	C346.805634,482.980530 342.927002,478.669434 342.699921,472.411133 
	C342.665161,471.453583 343.096802,470.416718 343.520782,469.514252 
	C350.452118,454.760284 357.406738,440.017181 364.377380,425.281708 
	C370.138916,413.102112 375.934204,400.938446 381.703094,388.762268 
	C384.846313,382.128052 387.855469,375.426300 391.190582,368.890503 
	C391.845215,367.607635 393.713715,366.128632 395.031219,366.120178 
	C420.519257,365.956848 446.008606,365.999176 472.619507,365.999176 
	C457.325897,387.862427 442.506042,409.048462 427.450439,430.571472 
	C436.896545,430.571472 445.643585,430.653412 454.388367,430.548370 
	C463.051117,430.444305 471.721863,430.342102 480.369446,429.874878 
	C486.144806,429.562805 489.541260,432.054779 491.327881,437.718811 
z"/>
</svg>